<?xml version="1.0" standalone="no"?>
 <!DOCTYPE svg PUBLIC "-//W3C//DTD SVG 1.1//EN" 
 "http://www.w3.org/Graphics/SVG/1.1/DTD/svg11.dtd"> 
<svg
  xmlns:svg="http://www.w3.org/2000/svg"
  xmlns="http://www.w3.org/2000/svg"
  xmlns:xlink="http://www.w3.org/1999/xlink"
  version="1.1"
  width="2.796540cm" height="2.288540cm" viewBox="0 0 11010 9010">
<title>SVG Picture created as pipe-brd.svg date 2021/01/05 21:04:42 </title>
  <desc>Picture generated by PCBNEW </desc>
<g style="fill:#000000; fill-opacity:1;stroke:#000000; stroke-opacity:1;
stroke-linecap:round; stroke-linejoin:round;"
 transform="translate(0 0) scale(1 1)">
</g>
<g style="fill:#000000; fill-opacity:0.0; 
stroke:#000000; stroke-width:-0.000393701; stroke-opacity:1; 
stroke-linecap:round; stroke-linejoin:round;">
</g>
<g style="fill:#000000; fill-opacity:0.0; 
stroke:#000000; stroke-width:78.7402; stroke-opacity:1; 
stroke-linecap:round; stroke-linejoin:round;">
<text x="4409.84" y="8206.69"
textLength="1915.82" font-size="524.934" lengthAdjust="spacingAndGlyphs"
text-anchor="middle" opacity="0">APE 5</text>
<path d="M3603 8075
L3791 8075
" />
<path d="M3566 8187
L3697 7794
L3828 8187
" />
<path d="M3959 8187
L3959 7794
L4109 7794
L4147 7812
L4166 7831
L4184 7869
L4184 7925
L4166 7962
L4147 7981
L4109 8000
L3959 8000
" />
<path d="M4353 7981
L4484 7981
" />
<path d="M4541 8187
L4353 8187
L4353 7794
L4541 7794
" />
<path d="M5197 7794
L5009 7794
L4991 7981
L5009 7962
L5047 7944
L5141 7944
L5178 7962
L5197 7981
L5215 8019
L5215 8112
L5197 8150
L5178 8169
L5141 8187
L5047 8187
L5009 8169
L4991 8150
" />
<text x="3909.84" y="7506.69"
textLength="1339.71" font-size="524.934" lengthAdjust="spacingAndGlyphs"
text-anchor="middle" opacity="0">pipe</text>
<path d="M3384 7225
L3384 7619
" />
<path d="M3384 7244
L3422 7225
L3497 7225
L3534 7244
L3553 7262
L3572 7300
L3572 7412
L3553 7450
L3534 7469
L3497 7487
L3422 7487
L3384 7469
" />
<path d="M3741 7487
L3741 7225
" />
<path d="M3741 7094
L3722 7112
L3741 7131
L3759 7112
L3741 7094
L3741 7131
" />
<path d="M3928 7225
L3928 7619
" />
<path d="M3928 7244
L3966 7225
L4041 7225
L4078 7244
L4097 7262
L4116 7300
L4116 7412
L4097 7450
L4078 7469
L4041 7487
L3966 7487
L3928 7469
" />
<path d="M4434 7469
L4397 7487
L4322 7487
L4284 7469
L4266 7431
L4266 7281
L4284 7244
L4322 7225
L4397 7225
L4434 7244
L4453 7281
L4453 7319
L4266 7356
" />
<text x="1309.84" y="1206.69"
textLength="589.801" font-size="524.934" lengthAdjust="spacingAndGlyphs"
text-anchor="middle" opacity="0">+</text>
<path d="M1159 1037
L1459 1037
" />
<path d="M1309 1187
L1309 887
" />
<text x="1309.84" y="8206.69"
textLength="589.801" font-size="524.934" lengthAdjust="spacingAndGlyphs"
text-anchor="middle" opacity="0">-</text>
<path d="M1159 8037
L1459 8037
" />
<text x="2009.84" y="7406.69"
textLength="1302.21" font-size="524.934" lengthAdjust="spacingAndGlyphs"
text-anchor="middle" opacity="0">GND</text>
<path d="M1709 7012
L1672 6994
L1616 6994
L1559 7012
L1522 7050
L1503 7087
L1484 7162
L1484 7219
L1503 7294
L1522 7331
L1559 7369
L1616 7387
L1653 7387
L1709 7369
L1728 7350
L1728 7219
L1653 7219
" />
<path d="M1897 7387
L1897 6994
L2122 7387
L2122 6994
" />
<path d="M2309 7387
L2309 6994
L2403 6994
L2459 7012
L2497 7050
L2516 7087
L2534 7162
L2534 7219
L2516 7294
L2497 7331
L2459 7369
L2403 7387
L2309 7387
" />
<text x="2009.84" y="1906.69"
textLength="1639.67" font-size="524.934" lengthAdjust="spacingAndGlyphs"
text-anchor="middle" opacity="0">3-6v</text>
<path d="M1297 1494
L1541 1494
L1409 1644
L1466 1644
L1503 1662
L1522 1681
L1541 1719
L1541 1812
L1522 1850
L1503 1869
L1466 1887
L1353 1887
L1316 1869
L1297 1850
" />
<path d="M1709 1737
L2009 1737
" />
<path d="M2366 1494
L2291 1494
L2253 1512
L2234 1531
L2197 1587
L2178 1662
L2178 1812
L2197 1850
L2216 1869
L2253 1887
L2328 1887
L2366 1869
L2384 1850
L2403 1812
L2403 1719
L2384 1681
L2366 1662
L2328 1644
L2253 1644
L2216 1662
L2197 1681
L2178 1719
" />
<path d="M2534 1625
L2628 1887
L2722 1625
" />
</g>
<g style="fill:#000000; fill-opacity:0.0; 
stroke:#000000; stroke-width:39.3701; stroke-opacity:1; 
stroke-linecap:round; stroke-linejoin:round;">
<path d="M8998 5606
L8998 4228
" />
<path d="M7333.46 4909.84 A976.378 976.378 0.0 0 0 9000.25 5600.25" />
<path d="M9000.25 4219.44 A976.378 976.378 0.0 0 0 7333.46 4909.84" />
<path d="M4320 4312
L4320 5690
" />
<path d="M5986.22 5009.84 A976.378 976.378 0.0 0 0 4319.44 4319.44" />
<path d="M4319.44 5700.25 A976.378 976.378 0.0 0 0 5986.22 5009.84" />
<path d="M2318 4155
L2318 4864
" />
<path d="M2318 4864
L2082 4864
" />
<path d="M2082 4864
L2082 4155
" />
<path d="M2082 4155
L1846 4155
" />
<path d="M1846 4155
L1846 4864
" />
<path d="M1846 4864
L1609 4864
" />
<path d="M1609 4864
L1609 4155
" />
<path d="M1609 4155
L1373 4155
" />
<path d="M1373 4155
L1373 4864
" />
<path d="M1373 4864
L1137 4864
" />
<path d="M1137 4864
L1137 4155
" />
<path d="M1137 4155
L901 4155
" />
<path d="M901 4155
L901 4864
" />
<path d="M428 5415
L428 3604
" />
<path d="M2790 3604
L2790 5415
" />
<path d="M2790.19 3603.35 A1488.27 1488.27 0.0 0 0 428.74 3604.33" />
<path d="M429.494 5416.34 A1488.27 1488.27 0.0 0 0 2790.95 5415.35" />
<circle cx="6517.72" cy="7109.84" r="984.252" /> 
<path d="M7357 7537
L7160 7537
" />
<path d="M7259 7636
L7259 7439
" />
<path d="M9509 7009
L9509 8009
" />
<circle cx="9509.84" cy="7009.84" r="492.126" /> 
<path d="M7009 2509
L6009 2509
" />
<circle cx="7009.84" cy="2509.84" r="492.126" /> 
<path d="M4309 1009
L4309 2009
" />
<circle cx="4309.84" cy="1009.84" r="492.126" /> 
<path d="M8931 2994
L10088 2994
" />
<circle cx="9509.84" cy="2009.84" r="984.252" /> 
<path d="M10088.5 2994.1 A1141.73 1141.73 0.0 1 0 8931.22 2994.09" />
<g >
</g>
<g >
</g>
<g >
</g>
<g >
</g>
<g >
</g>
<g >
</g>
<g >
</g>
<g >
</g>
</g>
<g style="fill:#000000; fill-opacity:0.0; 
stroke:#000000; stroke-width:39.3701; stroke-opacity:1; 
stroke-linecap:round; stroke-linejoin:round;">
</g>
<g style="fill:#000000; fill-opacity:0.0; 
stroke:#000000; stroke-width:59.0551; stroke-opacity:1; 
stroke-linecap:round; stroke-linejoin:round;">
<g transform="rotate(-90 9408.27 4909.84)">
<text x="9408.27" y="5106.69"
textLength="2014.62" font-size="524.934" lengthAdjust="spacingAndGlyphs"
text-anchor="middle" opacity="0">BC558</text>
</g>
<path d="M9380 5641
L9398 5584
L9417 5566
L9455 5547
L9511 5547
L9548 5566
L9567 5584
L9586 5622
L9586 5772
L9192 5772
L9192 5641
L9211 5603
L9230 5584
L9267 5566
L9305 5566
L9342 5584
L9361 5603
L9380 5641
L9380 5772
" />
<path d="M9548 5153
L9567 5172
L9586 5228
L9586 5266
L9567 5322
L9530 5359
L9492 5378
L9417 5397
L9361 5397
L9286 5378
L9248 5359
L9211 5322
L9192 5266
L9192 5228
L9211 5172
L9230 5153
" />
<path d="M9192 4797
L9192 4984
L9380 5003
L9361 4984
L9342 4947
L9342 4853
L9361 4816
L9380 4797
L9417 4778
L9511 4778
L9548 4797
L9567 4816
L9586 4853
L9586 4947
L9567 4984
L9548 5003
" />
<path d="M9192 4422
L9192 4609
L9380 4628
L9361 4609
L9342 4572
L9342 4478
L9361 4441
L9380 4422
L9417 4403
L9511 4403
L9548 4422
L9567 4441
L9586 4478
L9586 4572
L9567 4609
L9548 4628
" />
<path d="M9361 4178
L9342 4216
L9323 4234
L9286 4253
L9267 4253
L9230 4234
L9211 4216
L9192 4178
L9192 4103
L9211 4066
L9230 4047
L9267 4028
L9286 4028
L9323 4047
L9342 4066
L9361 4103
L9361 4178
L9380 4216
L9398 4234
L9436 4253
L9511 4253
L9548 4234
L9567 4216
L9586 4178
L9586 4103
L9567 4066
L9548 4047
L9511 4028
L9436 4028
L9398 4047
L9380 4066
L9361 4103
" />
<g transform="rotate(-90 8209.84 4909.84)">
<text x="8209.84" y="5106.69"
textLength="864.173" font-size="524.934" lengthAdjust="spacingAndGlyphs"
text-anchor="middle" opacity="0">Q2</text>
</g>
<path d="M8425 4947
L8406 4984
L8369 5022
L8312 5078
L8294 5116
L8294 5153
" />
<path d="M8387 5134
L8369 5172
L8331 5209
L8256 5228
L8125 5228
L8050 5209
L8012 5172
L7994 5134
L7994 5059
L8012 5022
L8050 4984
L8125 4966
L8256 4966
L8331 4984
L8369 5022
L8387 5059
L8387 5134
" />
<path d="M8031 4816
L8012 4797
L7994 4759
L7994 4666
L8012 4628
L8031 4609
L8069 4591
L8106 4591
L8162 4609
L8387 4834
L8387 4591
" />
<g transform="rotate(-90 3911.42 5009.84)">
<text x="3911.42" y="5206.69"
textLength="1989.03" font-size="524.934" lengthAdjust="spacingAndGlyphs"
text-anchor="middle" opacity="0">BC548</text>
</g>
<path d="M3883 5741
L3902 5684
L3920 5666
L3958 5647
L4014 5647
L4052 5666
L4070 5684
L4089 5722
L4089 5872
L3695 5872
L3695 5741
L3714 5703
L3733 5684
L3770 5666
L3808 5666
L3845 5684
L3864 5703
L3883 5741
L3883 5872
" />
<path d="M4052 5253
L4070 5272
L4089 5328
L4089 5366
L4070 5422
L4033 5459
L3995 5478
L3920 5497
L3864 5497
L3789 5478
L3752 5459
L3714 5422
L3695 5366
L3695 5328
L3714 5272
L3733 5253
" />
<path d="M3695 4897
L3695 5084
L3883 5103
L3864 5084
L3845 5047
L3845 4953
L3864 4916
L3883 4897
L3920 4878
L4014 4878
L4052 4897
L4070 4916
L4089 4953
L4089 5047
L4070 5084
L4052 5103
" />
<path d="M3827 4541
L4089 4541
" />
<path d="M3677 4634
L3958 4728
L3958 4484
" />
<path d="M3864 4278
L3845 4316
L3827 4334
L3789 4353
L3770 4353
L3733 4334
L3714 4316
L3695 4278
L3695 4203
L3714 4166
L3733 4147
L3770 4128
L3789 4128
L3827 4147
L3845 4166
L3864 4203
L3864 4278
L3883 4316
L3902 4334
L3939 4353
L4014 4353
L4052 4334
L4070 4316
L4089 4278
L4089 4203
L4070 4166
L4052 4147
L4014 4128
L3939 4128
L3902 4147
L3883 4166
L3864 4203
" />
<g transform="rotate(-90 5009.84 5009.84)">
<text x="5009.84" y="5206.69"
textLength="864.173" font-size="524.934" lengthAdjust="spacingAndGlyphs"
text-anchor="middle" opacity="0">Q1</text>
</g>
<path d="M5225 5047
L5206 5084
L5169 5122
L5112 5178
L5094 5216
L5094 5253
" />
<path d="M5187 5234
L5169 5272
L5131 5309
L5056 5328
L4925 5328
L4850 5309
L4812 5272
L4794 5234
L4794 5159
L4812 5122
L4850 5084
L4925 5066
L5056 5066
L5131 5084
L5169 5122
L5187 5159
L5187 5234
" />
<path d="M5187 4691
L5187 4916
" />
<path d="M5187 4803
L4794 4803
L4850 4841
L4887 4878
L4906 4916
" />
<text x="1609.84" y="3906.69"
textLength="1932.79" font-size="524.934" lengthAdjust="spacingAndGlyphs"
text-anchor="middle" opacity="0">LDR03</text>
<path d="M963 3887
L775 3887
L775 3494
" />
<path d="M1094 3887
L1094 3494
L1188 3494
L1244 3512
L1281 3550
L1300 3587
L1319 3662
L1319 3719
L1300 3794
L1281 3831
L1244 3869
L1188 3887
L1094 3887
" />
<path d="M1712 3887
L1581 3700
" />
<path d="M1487 3887
L1487 3494
L1637 3494
L1675 3512
L1694 3531
L1712 3569
L1712 3625
L1694 3662
L1675 3681
L1637 3700
L1487 3700
" />
<path d="M1956 3494
L1994 3494
L2031 3512
L2050 3531
L2069 3569
L2087 3644
L2087 3737
L2069 3812
L2050 3850
L2031 3869
L1994 3887
L1956 3887
L1919 3869
L1900 3850
L1881 3812
L1862 3737
L1862 3644
L1881 3569
L1900 3531
L1919 3512
L1956 3494
" />
<path d="M2219 3494
L2462 3494
L2331 3644
L2387 3644
L2425 3662
L2444 3681
L2462 3719
L2462 3812
L2444 3850
L2425 3869
L2387 3887
L2275 3887
L2237 3869
L2219 3850
" />
<text x="1609.84" y="5806.69"
textLength="845.426" font-size="524.934" lengthAdjust="spacingAndGlyphs"
text-anchor="middle" opacity="0">R2</text>
<path d="M1544 5787
L1412 5600
" />
<path d="M1319 5787
L1319 5394
L1469 5394
L1506 5412
L1525 5431
L1544 5469
L1544 5525
L1525 5562
L1506 5581
L1469 5600
L1319 5600
" />
<path d="M1694 5431
L1712 5412
L1750 5394
L1844 5394
L1881 5412
L1900 5431
L1919 5469
L1919 5506
L1900 5562
L1675 5787
L1919 5787
" />
<text x="7609.84" y="8606.69"
textLength="1707.82" font-size="524.934" lengthAdjust="spacingAndGlyphs"
text-anchor="middle" opacity="0">2.2uF</text>
<path d="M6869 8231
L6888 8212
L6925 8194
L7019 8194
L7056 8212
L7075 8231
L7094 8269
L7094 8306
L7075 8362
L6850 8587
L7094 8587
" />
<path d="M7263 8550
L7281 8569
L7263 8587
L7244 8569
L7263 8550
L7263 8587
" />
<path d="M7431 8231
L7450 8212
L7487 8194
L7581 8194
L7619 8212
L7637 8231
L7656 8269
L7656 8306
L7637 8362
L7412 8587
L7656 8587
" />
<path d="M7994 8325
L7994 8587
" />
<path d="M7825 8325
L7825 8531
L7844 8569
L7881 8587
L7937 8587
L7975 8569
L7994 8550
" />
<path d="M8312 8381
L8181 8381
" />
<path d="M8181 8587
L8181 8194
L8369 8194
" />
<text x="6517.72" y="7306.69"
textLength="845.426" font-size="524.934" lengthAdjust="spacingAndGlyphs"
text-anchor="middle" opacity="0">C1</text>
<path d="M6452 7250
L6433 7269
L6377 7287
L6339 7287
L6283 7269
L6245 7231
L6227 7194
L6208 7119
L6208 7062
L6227 6987
L6245 6950
L6283 6912
L6339 6894
L6377 6894
L6433 6912
L6452 6931
" />
<path d="M6827 7287
L6602 7287
" />
<path d="M6714 7287
L6714 6894
L6677 6950
L6639 6987
L6602 7006
" />
<g transform="rotate(-90 9109.84 7809.84)">
<text x="9109.84" y="8006.69"
textLength="826.678" font-size="524.934" lengthAdjust="spacingAndGlyphs"
text-anchor="middle" opacity="0">47</text>
</g>
<path d="M9025 7922
L9287 7922
" />
<path d="M8875 8016
L9156 8109
L9156 7866
" />
<path d="M8894 7753
L8894 7491
L9287 7659
" />
<g transform="rotate(-90 10009.8 7809.84)">
<text x="10009.8" y="8006.69"
textLength="845.426" font-size="524.934" lengthAdjust="spacingAndGlyphs"
text-anchor="middle" opacity="0">R4</text>
</g>
<path d="M10187 7875
L10000 8006
" />
<path d="M10187 8100
L9794 8100
L9794 7950
L9812 7912
L9831 7894
L9869 7875
L9925 7875
L9962 7894
L9981 7912
L10000 7950
L10000 8100
" />
<path d="M9925 7538
L10187 7538
" />
<path d="M9775 7631
L10056 7725
L10056 7481
" />
<text x="6509.84" y="1906.69"
textLength="845.426" font-size="524.934" lengthAdjust="spacingAndGlyphs"
text-anchor="middle" opacity="0">1K</text>
<path d="M6425 1887
L6200 1887
" />
<path d="M6312 1887
L6312 1494
L6275 1550
L6238 1587
L6200 1606
" />
<path d="M6594 1887
L6594 1494
" />
<path d="M6819 1887
L6650 1662
" />
<path d="M6819 1494
L6594 1719
" />
<text x="6009.84" y="3206.69"
textLength="845.426" font-size="524.934" lengthAdjust="spacingAndGlyphs"
text-anchor="middle" opacity="0">R3</text>
<path d="M5944 3187
L5812 3000
" />
<path d="M5719 3187
L5719 2794
L5869 2794
L5906 2812
L5925 2831
L5944 2869
L5944 2925
L5925 2962
L5906 2981
L5869 3000
L5719 3000
" />
<path d="M6075 2794
L6319 2794
L6187 2944
L6244 2944
L6281 2962
L6300 2981
L6319 3019
L6319 3112
L6300 3150
L6281 3169
L6244 3187
L6131 3187
L6094 3169
L6075 3150
" />
<g transform="rotate(-90 3909.84 2209.84)">
<text x="3909.84" y="2406.69"
textLength="1276.62" font-size="524.934" lengthAdjust="spacingAndGlyphs"
text-anchor="middle" opacity="0">2M2</text>
</g>
<path d="M3731 2734
L3712 2716
L3694 2678
L3694 2584
L3712 2547
L3731 2528
L3769 2509
L3806 2509
L3862 2528
L4087 2753
L4087 2509
" />
<path d="M4087 2341
L3694 2341
L3975 2209
L3694 2078
L4087 2078
" />
<path d="M3731 1909
L3712 1891
L3694 1853
L3694 1759
L3712 1722
L3731 1703
L3769 1684
L3806 1684
L3862 1703
L4087 1928
L4087 1684
" />
<g transform="rotate(-90 5242.91 1509.84)">
<text x="5242.91" y="1706.69"
textLength="845.426" font-size="524.934" lengthAdjust="spacingAndGlyphs"
text-anchor="middle" opacity="0">R1</text>
</g>
<path d="M5421 1575
L5233 1706
" />
<path d="M5421 1800
L5027 1800
L5027 1650
L5046 1612
L5064 1594
L5102 1575
L5158 1575
L5196 1594
L5214 1612
L5233 1650
L5233 1800
" />
<path d="M5421 1200
L5421 1425
" />
<path d="M5421 1312
L5027 1312
L5083 1350
L5121 1387
L5139 1425
" />
<text x="8209.84" y="1006.69"
textLength="1145.39" font-size="524.934" lengthAdjust="spacingAndGlyphs"
text-anchor="middle" opacity="0">LED</text>
<path d="M7956 987
L7769 987
L7769 594
" />
<path d="M8087 781
L8219 781
" />
<path d="M8275 987
L8087 987
L8087 594
L8275 594
" />
<path d="M8444 987
L8444 594
L8537 594
L8594 612
L8631 650
L8650 687
L8669 762
L8669 819
L8650 894
L8631 931
L8594 969
L8537 987
L8444 987
" />
</g>
<g style="fill:#000000; fill-opacity:0.0; 
stroke:#000000; stroke-width:78.7402; stroke-opacity:1; 
stroke-linecap:round; stroke-linejoin:round;">
<g transform="rotate(-90 9509.84 2017.72)">
<text x="9509.84" y="2175.2"
textLength="691.695" font-size="419.947" lengthAdjust="spacingAndGlyphs"
text-anchor="middle" opacity="0">D1</text>
</g>
<path d="M9652 2250
L9337 2250
L9337 2175
L9352 2130
L9382 2100
L9412 2085
L9472 2070
L9517 2070
L9577 2085
L9607 2100
L9637 2130
L9652 2175
L9652 2250
" />
<path d="M9652 1770
L9652 1950
" />
<path d="M9652 1860
L9337 1860
L9382 1890
L9412 1920
L9427 1950
" />
<g >
</g>
</g>
<g style="fill:#000000; fill-opacity:0.0; 
stroke:#000000; stroke-width:78.7402; stroke-opacity:1; 
stroke-linecap:round; stroke-linejoin:round;">
</g>
<g style="fill:#000000; fill-opacity:0.0; 
stroke:#000000; stroke-width:19.685; stroke-opacity:1; 
stroke-linecap:round; stroke-linejoin:round;">
<path d="M11009 9
L9 9
" />
<path d="M11009 9009
L11009 9
" />
<path d="M9 9009
L11009 9009
" />
<path d="M9 9
L9 9009
" />
<g >
</g>
<g >
</g>
<g >
</g>
<g >
</g>
<g >
</g>
<g >
</g>
<g >
</g>
<g >
</g>
<g >
</g>
</g> 
</svg>
